<svg width="67" height="67" viewBox="0 0 67 67" fill="none" xmlns="http://www.w3.org/2000/svg">
<path d="M33.5 46.9L46.9 33.5L42.21 28.81L36.85 34.17V20.1H30.15V34.17L24.79 28.81L20.1 33.5L33.5 46.9ZM33.5 67C28.8658 67 24.5108 66.1201 20.435 64.3602C16.3592 62.6003 12.8137 60.214 9.79875 57.2012C6.78375 54.1862 4.39743 50.6408 2.6398 46.565C0.882167 42.4892 0.00223333 38.1342 0 33.5C0 28.8658 0.879934 24.5108 2.6398 20.435C4.39967 16.3592 6.78598 12.8137 9.79875 9.79875C12.8137 6.78375 16.3592 4.39743 20.435 2.6398C24.5108 0.882167 28.8658 0.00223333 33.5 0C38.1342 0 42.4892 0.879934 46.565 2.6398C50.6408 4.39967 54.1862 6.78598 57.2012 9.79875C60.2162 12.8137 62.6037 16.3592 64.3635 20.435C66.1234 24.5108 67.0022 28.8658 67 33.5C67 38.1342 66.1201 42.4892 64.3602 46.565C62.6003 50.6408 60.214 54.1862 57.2012 57.2012C54.1862 60.2162 50.6408 62.6037 46.565 64.3635C42.4892 66.1234 38.1342 67.0022 33.5 67Z" fill="#676D79" fill-opacity="0.8"/>
</svg>
